<svg xmlns="http://www.w3.org/2000/svg" viewBox="0 0 158.88 158.88"><defs><style>.cls-1{fill:#ef7f1b;}.cls-2{fill:#fff;}.cls-3{fill:#2a2a28;}</style></defs><title>Ресурс 1</title><g id="Слой_2" data-name="Слой 2"><g id="Слой_1-2" data-name="Слой 1"><rect class="cls-1" width="158.88" height="158.88"/><polygon class="cls-2" points="109.6 23.17 96.79 53.25 79.08 23.67 61.38 53.25 48.56 23.17 28.17 23.17 61.5 98.17 79.08 59 96.67 98.17 130 23.17 109.6 23.17"/><path class="cls-3" d="M67.71,116.42l-9.9-.25-6.25,14.71-6.94-14.71H42.69l-7.13,14.71-6.12-14.71H24.25l11.17,25,8.12-16.79,7.79,15.79H67a12.05,12.05,0,0,0,12.19-11.9C79.17,122,75.18,116.92,67.71,116.42ZM67,135.88H55l6.08-15.07,0-.08,5.65.13c5,.09,7.87,2.8,7.87,7.41A7.74,7.74,0,0,1,67,135.88Z"/><polygon class="cls-3" points="90.17 116.17 80.13 126.79 80.13 130.38 89.83 140.17 96.88 140.17 85.4 128.39 97.17 116.17 90.17 116.17"/><polygon class="cls-3" points="112.29 120.92 112.29 116.17 102.5 116.17 99.63 116.17 97.71 116.17 97.71 140.17 99.63 140.17 102.5 140.17 112.29 140.17 112.29 135.42 102.5 135.42 102.5 129.75 112.29 129.75 112.29 125 102.5 125 102.5 120.92 112.29 120.92"/><path class="cls-3" d="M122.27,130.75a7.35,7.35,0,0,0-1.34-14.58H113.4V121h6.5a2.62,2.62,0,0,1,2.63,2.62,2.67,2.67,0,0,1-.77,1.86,2.61,2.61,0,0,1-1.86.77l-7.15.13,11.66,13.82h7Z"/></g></g></svg>