<?xml version="1.0" encoding="iso-8859-1"?>
<!-- Uploaded to: SVG Repo, www.svgrepo.com, Generator: SVG Repo Mixer Tools -->
<svg fill="#000000" height="800px" width="800px" version="1.1" id="Layer_1" xmlns="http://www.w3.org/2000/svg" xmlns:xlink="http://www.w3.org/1999/xlink"
	 viewBox="0 0 600 600" xml:space="preserve">
<rect x="5" y="80" width="500" height="350" fill="#fff"/>
<g >
	<g>
		<path d="M503.83,78.979H8.17c-4.513,0-8.17,3.658-8.17,8.17v337.702c0,4.512,3.657,8.17,8.17,8.17h495.66
			c4.513,0,8.17-3.658,8.17-8.17V87.149C512,82.637,508.343,78.979,503.83,78.979z M495.66,416.681H16.34V95.319H495.66V416.681z"/>
	</g>
</g>
<g>
	<g>
		<path d="M473.351,386.123L330.108,256l143.24-130.123c3.34-3.034,3.588-8.201,0.555-11.541c-3.035-3.34-8.202-3.586-11.542-0.553
			L256,301.246L49.642,113.786c-3.338-3.033-8.506-2.788-11.542,0.553c-3.034,3.34-2.787,8.507,0.554,11.541L181.892,256
			L38.655,386.12c-3.34,3.034-3.588,8.201-0.553,11.541c1.612,1.775,3.828,2.677,6.05,2.677c1.961,0,3.926-0.702,5.491-2.123
			l144.4-131.177l56.464,51.293c1.558,1.415,3.525,2.123,5.494,2.123c1.968,0,3.936-0.707,5.494-2.123l56.465-51.294
			l144.404,131.181c1.565,1.422,3.531,2.123,5.491,2.123c2.222,0,4.437-0.902,6.05-2.677
			C476.939,394.324,476.692,389.157,473.351,386.123z"/>
	</g>
</g>
<path d="M16 12C16 14.2091 14.2091 16 12 16C9.79086 16 8 14.2091 8 12C8 9.79086 9.79086 8 12 8C14.2091 8 16 9.79086 16 12ZM16 12V13.5C16 14.8807 17.1193 16 18.5 16V16C19.8807 16 21 14.8807 21 13.5V12C21 7.02944 16.9706 3 12 3C7.02944 3 3 7.02944 3 12C3 16.9706 7.02944 21 12 21H16" transform="scale(7) translate(24, 14)" stroke="#ff0000" stroke-width="2" stroke-linecap="round" stroke-linejoin="round" fill="none"/>
</svg>